<svg xmlns="http://www.w3.org/2000/svg" viewBox="0 0 789.71 392.15"><defs><style>.cls-1{fill:#41b8ff;}.cls-2{fill:#fff;stroke:#fff;stroke-miterlimit:10;stroke-width:7px;}.cls-3{font-size:162.41px;fill:#dbe9ee;font-family:ButterflyKids-Regular, Butterfly Kids;}</style></defs><g id="Layer_2" data-name="Layer 2"><g id="Layer_1-2" data-name="Layer 1"><rect class="cls-1" x="52.9" width="697.79" height="222.05"/><path class="cls-2" d="M507.21,131.43c-30.81,30.81-65.33,62.24-110.55,72.17-47.76,10.48-97.72-5.23-141.82-24.48a835,835,0,0,1-107.53-56.78q-25.22-15.74-49.16-33c-15-10.78-28.8-23.72-45.39-32.55L4.09,354l781.25,34.47L749.19,218.68c-34.49-24.61-70.45-49.89-113.46-59.53a223.09,223.09,0,0,0-44.64-4.92c-21.32-.38-42.61,1.43-63.66,4.26-10.57,1.42-21.09,3.1-31.58,4.89-8.19,1.4-19.06,5.23-27.34,3.6"/><text class="cls-3" transform="translate(52.9 282.02) scale(2.08 1)">Google</text></g></g></svg>