<svg xmlns="http://www.w3.org/2000/svg" viewBox="0 0 69.96 61.28"><defs><style>.cls-1{fill:#4286f5;}.cls-1,.cls-2{stroke:#000;}.cls-1,.cls-2,.cls-4,.cls-6{stroke-miterlimit:10;}.cls-2,.cls-4{stroke-width:0.75px;}.cls-3{fill:#34a753;}.cls-4{fill:#f9bc05;stroke:#f9bc05;}.cls-5{fill:#fddad8;}.cls-6{fill:#ea4235;stroke:#ea4235;stroke-width:0.25px;}</style></defs><g id="Layer_2" data-name="Layer 2"><g id="Layer_1-2" data-name="Layer 1"><path class="cls-1" d="M3.17,28.85,35.75,58.13c17.5,9.41,16.31-9,12-13.26L15.18,15.59C5.85,9.86-4.5,15.32,3.17,28.85Z"/><polygon class="cls-2" points="34.54 48.86 36.01 52.26 39.58 51.91 41.21 48.78 42.15 44.6 41.09 44.08 36.56 43.67 34.54 48.86"/><polygon class="cls-2" points="15.52 26.23 13.47 29.45 15.63 32.21 19.09 31.72 23.06 30.04 22.94 28.86 20.89 24.85 15.52 26.23"/><path class="cls-2" d="M67.83,26.33l1.3,2.57s.86,2.49.21,2.42-1.58-2.44-2-2.38,0,1.5.13,1.87c-1.89-.17-1.39-3.65-1.39-3.65"/><path class="cls-2" d="M35.63,3.12s-2.1-1.59-2.18-2c.12-.76,3.09.79,3.49,1.29"/><path class="cls-3" d="M37.63,43.2l-.74,2.63-1.8,2.77s1.18,2.45,2.57,2.31c.15-1.25,1.34-3,1.08-4.15L40,44.45"/><path class="cls-3" d="M23.34,26.67l-1,.3-2.43.35-2.33.24a4,4,0,0,1-1.75-.11c-.79.66-1.93.89-1.06,2.27s.68,1.25,1.63,1.17a20.84,20.84,0,0,0,3.08-.6l2.22-1.51,2.51.61"/><path class="cls-4" d="M32.72,27.32l-8.38,2.47-1.43-3.46,0-.09,8.4-3,.57-.26c3.95-3,9.3-6.5,9.3-6.5L42,14.76l1.49-2.9-5.15-.25-2.9-7.87.22-.46a1.89,1.89,0,0,1,1.85-.61c.32.17,3.79,5.15,3.79,5.15l1.12.07c.16-.35,1.41-.7,3.55-1.11a12,12,0,0,1,4.31.08s-.34-3.6,1-5.4,5-1.2,6.11.53.16,2.06-.28,3.11c-.26,1.37-2.67,4.11-3.65,4a56.83,56.83,0,0,1,5,6.38l.13.16s6.9,8.42,8.86,9.47-1.28,2.94-3.06,2.62-9.27-9.86-9.27-9.86L55,17.78c-.49-.4-1-.89-1.68-1.37L49,21.17,43,36.72l-.16.34,0,.16-2.26,7.55-3.72-2.15,2.09-5.9.09-.24c2.53-5.84,2.27-11.56,1.88-11.91s-4.68,1.36-7.78,2.59Z"/><path class="cls-5" d="M57.27,1.87a9.3,9.3,0,0,0-1.8-.93,7.12,7.12,0,0,0-1.33-.5,3,3,0,0,0-1.81.2A3.44,3.44,0,0,0,50.92,2a1.91,1.91,0,0,0-.15.28,7.21,7.21,0,0,0-.55,3.32,1.72,1.72,0,0,0,.17.87A1.65,1.65,0,0,0,51,7l2.91,1.83a.34.34,0,0,0,.18.07.28.28,0,0,0,.16-.09A11.51,11.51,0,0,0,57.66,4a2.88,2.88,0,0,0,.18-1A1.38,1.38,0,0,0,57.27,1.87Z"/><line class="cls-6" x1="50.91" y1="9.1" x2="40.65" y2="24.95"/></g></g></svg>