<svg xmlns="http://www.w3.org/2000/svg" viewBox="0 0 69.74 61.63"><defs><style>.cls-1{fill:#fff;}.cls-1,.cls-2{stroke:#1d1d1b;stroke-miterlimit:10;stroke-width:0.75px;}.cls-2{fill:none;}</style></defs><g id="Layer_2" data-name="Layer 2"><g id="Layer_1-2" data-name="Layer 1"><path class="cls-1" d="M3.05,29.33c21,18.91,19.25,17.3,32.58,29.28,17.49,9.41,16.31-9,12-13.26L15.05,16.07C5.72,10.34-4.62,15.8,3.05,29.33Z"/><polygon class="cls-2" points="34.41 49.34 35.89 52.74 39.45 52.39 41.08 49.26 42.02 45.08 40.97 44.56 36.43 44.15 34.41 49.34"/><polygon class="cls-2" points="15.39 26.71 13.34 29.93 15.51 32.69 18.97 32.2 22.94 30.52 22.81 29.34 20.77 25.33 15.39 26.71"/><path class="cls-1" d="M59.83,21.31c-.89-1.19-2.57-2.83-3.15-3.79-1.41-.47-1,.65-1.5.26s-1-.89-1.68-1.37l-4.31,4.76L43.24,36.72c-.15,1,.4,1.15-1,3.62,0,0-3.54,5.23-3.27,6.42s-.93,2.9-1.08,4.15c-1.39.14-2.57-2.31-2.57-2.31l1.8-2.77,2.65-9.16-.53-.19c2.53-5.84,2.27-11.56,1.88-11.91s-9.65,3.24-10.69,3.84-2,0-3,.06l-5.51.31-2.22,1.51a20.84,20.84,0,0,1-3.08.6c-.95.08-.75.2-1.63-1.17s.27-1.61,1.06-2.27a4,4,0,0,0,1.75.11l2.33-.24,3.59-1.16s.52-1.66,6.45-1.65c3.83-3.22,11.23-8,11.23-8l.86-1.72,1.49-2.9-5.15-.25-2.9-7.87s-2.1-1.59-2.18-2c.12-.76,2.73.26,3.12.76-.41,1.31,3,5.57,3.52,6s1.51,0,1.51,0,.14-.76.66-.87,1.76-.47,3.9-.88a12,12,0,0,1,4.31.08s-.34-3.6,1-5.4,5-1.2,6.11.53.16,2.06-.28,3.11c-.26,1.37-2.67,4.11-3.65,4a56.83,56.83,0,0,1,5,6.38s-.06.68-.4.44a22,22,0,0,1,2.19,3.36c1.94,1.52,8.24,9.31,8.24,9.31s1.12,3.13.48,3.06-1.85-3.07-2.22-3,.74,1.69.82,2.06c-1.89-.17-2.08-3.48-2.08-3.48-.06-.23-3.57-2.84-5.86-5.92"/></g></g></svg>